<svg xmlns="http://www.w3.org/2000/svg" viewBox="0 0 24 24" width="30" height="30" aria-hidden="true">
  <defs>
    <linearGradient id="instagramBrandGradient" x1="0%" y1="100%" x2="100%" y2="0%">
      <stop offset="0%" stop-color="#f09433"/>
      <stop offset="25%" stop-color="#e6683c"/>
      <stop offset="50%" stop-color="#dc2743"/>
      <stop offset="75%" stop-color="#cc2366"/>
      <stop offset="100%" stop-color="#bc1888"/>
    </linearGradient>
  </defs>
  <!-- Official-style glyph: gradient fill (Instagram multi-color brand) -->
  <path fill="url(#instagramBrandGradient)" d="M12 0C8.74 0 8.333.015 7.053.072 5.775.132 4.905.333 4.14.63c-.789.306-1.459.717-2.126 1.384S.935 3.35.63 4.14C.333 4.905.131 5.775.072 7.053.012 8.333 0 8.74 0 12s.015 3.667.072 4.947c.061 1.277.261 2.148.558 2.913.306.788.717 1.459 1.384 2.126.667.666 1.336 1.079 2.126 1.384.766.296 1.636.498 2.913.558 1.28.06 1.687.073 4.947.073s3.667-.015 4.947-.072c1.277-.06 2.148-.262 2.913-.558.788-.306 1.459-.718 2.126-1.384.666-.667 1.079-1.335 1.384-2.126.296-.765.497-1.636.558-2.913.06-1.28.073-1.687.073-4.947s-.015-3.667-.072-4.947c-.061-1.277-.261-2.148-.558-2.913-.306-.788-.717-1.459-1.384-2.126C21.062 5.065 20.394 4.665 19.605 4.368c-.765-.297-1.636-.499-2.913-.558C15.333.012 14.926 0 12 0zm0 2.163c3.204 0 3.584.012 4.85.071 1.252.058 1.938.331 2.389.557.596.274 1.024.602 1.469 1.047.445.445.773.873 1.047 1.469.226.451.499 1.137.557 2.389.058 1.266.072 1.646.072 4.85s-.014 3.584-.072 4.85c-.058 1.252-.331 1.938-.557 2.389-.274.596-.602 1.024-1.047 1.469-.445.445-.873.773-1.469 1.047-.451.226-1.137.499-2.389.557-1.266.058-1.646.072-4.85.072s-3.584-.014-4.85-.072c-1.252-.058-1.938-.331-2.389-.557-.596-.274-1.024-.602-1.469-1.047-.445-.445-.773-.873-1.047-1.469-.226-.451-.499-1.137-.557-2.389-.058-1.266-.072-1.646-.072-4.85s.014-3.584.072-4.85c.058-1.252.331-1.938.557-2.389.274-.596.602-1.024 1.047-1.469.445-.445.873-.773 1.469-1.047.451-.226 1.137-.499 2.389-.557 1.266-.059 1.646-.072 4.85-.072zM12 5.838a6.162 6.162 0 100 12.324 6.162 6.162 0 000-12.324zM12 16a4 4 0 110-8 4 4 0 010 8zm6.406-11.845a1.44 1.44 0 11-2.881 0 1.44 1.44 0 012.881 0z"/>
</svg>
